<?xml version="1.0" standalone="no"?>
<!DOCTYPE svg PUBLIC "-//W3C//DTD SVG 20010904//EN"
 "http://www.w3.org/TR/2001/REC-SVG-20010904/DTD/svg10.dtd">
<svg version="1.0" xmlns="http://www.w3.org/2000/svg"
 width="600.000000pt" height="600.000000pt" viewBox="0 0 600.000000 600.000000"
 preserveAspectRatio="xMidYMid meet">
<g transform="translate(0.000000,600.000000) scale(0.100000,-0.100000)"
fill="#000000" stroke="none">
<path d="M3010 5853 c-8 -2 -127 -193 -265 -425 -137 -231 -262 -439 -276
-462 -15 -22 -97 -160 -184 -306 -87 -146 -168 -281 -180 -300 -27 -42 -669
-1114 -704 -1174 -13 -22 -38 -61 -56 -86 -82 -114 -82 -147 -2 -184 29 -14
73 -38 97 -54 25 -16 105 -65 177 -108 73 -43 168 -100 210 -126 43 -26 105
-62 138 -82 33 -19 101 -59 150 -90 50 -30 122 -74 160 -96 39 -23 106 -63
150 -90 44 -27 109 -65 145 -86 36 -21 76 -45 90 -55 45 -30 366 -219 374
-219 9 0 157 85 211 120 22 15 94 58 160 97 179 105 590 348 850 503 545 325
496 294 514 328 14 26 4 47 -155 310 -55 92 -201 336 -324 542 -318 535 -859
1438 -1002 1674 -14 24 -38 66 -53 93 -15 26 -46 80 -69 118 -24 39 -53 89
-66 113 -13 23 -29 42 -36 42 -7 0 -18 2 -26 4 -7 2 -20 2 -28 -1z m50 -45
c21 -26 90 -139 90 -149 0 -6 5 -7 10 -4 6 4 9 3 8 -2 -4 -12 26 -73 35 -73 5
0 5 -4 2 -10 -3 -5 -2 -10 4 -10 6 0 18 -17 28 -37 17 -37 53 -97 72 -119 6
-7 7 -15 4 -18 -4 -3 -1 -6 6 -6 7 0 9 -4 6 -10 -3 -5 -2 -10 3 -10 5 0 12 -8
15 -17 8 -24 40 -77 50 -81 4 -2 7 -8 7 -14 0 -5 10 -24 23 -41 34 -49 47 -70
53 -89 4 -10 11 -18 17 -18 6 0 8 -3 4 -6 -3 -4 12 -34 35 -67 22 -33 34 -56
27 -52 -8 5 -4 -3 8 -16 20 -23 96 -146 99 -161 1 -5 2 -13 3 -19 0 -5 6 -7
13 -3 6 4 8 3 5 -3 -4 -6 2 -18 13 -28 11 -10 20 -24 20 -30 0 -7 7 -18 15
-25 8 -6 13 -15 12 -18 -2 -8 43 -85 56 -93 5 -3 8 -9 8 -13 -1 -7 19 -45 47
-87 9 -15 30 -48 46 -75 16 -27 53 -89 83 -137 29 -49 53 -92 53 -96 0 -5 13
-26 29 -48 16 -22 32 -49 35 -61 4 -12 12 -20 17 -17 5 3 6 -1 3 -9 -4 -9 0
-18 9 -22 9 -3 14 -14 12 -25 -2 -11 0 -17 4 -14 5 3 12 -1 15 -8 3 -6 15 -25
26 -42 11 -16 25 -41 32 -55 7 -14 15 -27 18 -30 3 -3 10 -15 17 -27 10 -17
10 -23 0 -27 -7 -3 -4 -7 9 -11 12 -4 35 -32 54 -68 18 -34 50 -87 71 -118 21
-31 35 -59 32 -63 -4 -3 -1 -6 5 -6 7 0 12 -9 12 -19 0 -11 8 -26 18 -33 9 -7
18 -19 20 -27 1 -7 23 -44 47 -81 25 -38 50 -80 57 -94 6 -14 15 -26 20 -26 4
0 7 -4 6 -8 -3 -9 56 -109 88 -150 30 -39 47 -88 40 -115 -3 -13 -20 -31 -38
-40 -46 -25 -69 -39 -105 -64 -17 -13 -39 -23 -49 -23 -9 0 -14 -3 -11 -6 4
-4 -18 -19 -48 -34 -30 -15 -51 -31 -47 -35 4 -5 2 -5 -5 -2 -6 4 -18 0 -26
-8 -9 -8 -20 -15 -26 -15 -6 0 -11 -4 -11 -9 0 -5 -11 -12 -24 -15 -14 -3 -31
-12 -38 -19 -26 -25 -85 -57 -93 -49 -5 4 -5 2 -2 -5 5 -7 -6 -16 -28 -23 -19
-6 -35 -16 -35 -21 0 -5 -6 -9 -14 -9 -7 0 -25 -9 -40 -21 -14 -11 -26 -17
-26 -13 0 4 -6 0 -13 -11 -8 -10 -19 -15 -24 -12 -6 4 -14 0 -17 -9 -3 -8 -10
-13 -15 -10 -5 4 -11 3 -13 -2 -1 -4 -30 -25 -63 -46 -33 -22 -66 -44 -74 -50
-12 -9 -13 -8 -6 3 4 7 -7 3 -26 -10 -19 -13 -35 -27 -37 -31 -2 -5 -13 -8
-23 -8 -11 0 -18 -4 -15 -9 3 -5 -5 -12 -19 -15 -13 -3 -34 -16 -46 -29 -12
-12 -19 -16 -14 -9 4 8 -15 -2 -41 -20 -49 -34 -73 -47 -85 -44 -4 0 -15 -6
-25 -15 -11 -9 -44 -30 -74 -48 -30 -18 -75 -45 -100 -61 -25 -16 -54 -34 -65
-40 -11 -6 -33 -19 -50 -30 -16 -11 -42 -25 -57 -31 -16 -6 -28 -15 -28 -20 0
-5 -5 -9 -10 -9 -6 0 -27 -10 -48 -23 -43 -27 -62 -25 -118 14 -23 15 -44 26
-46 24 -3 -3 -13 4 -23 15 -10 11 -22 20 -28 20 -5 0 -29 14 -54 30 -24 17
-48 30 -54 30 -5 0 -9 5 -9 10 0 6 -6 10 -14 10 -8 0 -16 5 -18 11 -2 5 -10
11 -18 12 -19 3 -110 55 -128 74 -8 7 -18 10 -24 7 -6 -4 -8 -2 -4 4 3 6 -8
15 -29 22 -19 6 -35 15 -35 20 0 5 -10 12 -22 16 -13 4 -37 17 -54 30 -17 13
-39 24 -48 24 -9 0 -14 5 -11 10 3 6 -2 10 -12 10 -10 0 -31 11 -47 25 -16 14
-33 25 -38 25 -5 0 -29 13 -53 30 -24 16 -46 30 -49 30 -3 0 -46 25 -94 55
-49 30 -94 55 -101 55 -7 0 -10 4 -7 8 2 4 -23 21 -56 37 -33 16 -63 35 -65
42 -3 7 -11 13 -18 13 -21 0 -154 84 -148 94 3 5 1 6 -5 2 -6 -3 -18 2 -28 11
-10 10 -21 19 -26 19 -4 1 -10 3 -13 4 -3 1 -10 3 -15 4 -6 0 -14 6 -18 12 -8
12 -43 28 -55 25 -5 -1 -6 3 -2 9 3 5 1 11 -4 11 -6 1 -14 2 -18 3 -13 2 -88
50 -91 58 -2 4 -13 8 -23 8 -11 0 -17 4 -14 10 3 5 0 7 -8 4 -19 -7 -29 20
-17 50 5 13 31 55 59 93 28 38 51 76 51 84 1 8 14 30 30 49 17 19 30 38 30 42
0 4 14 27 30 51 17 25 30 48 30 52 0 4 9 20 21 36 11 16 17 29 13 29 -4 0 1 7
12 15 10 8 15 15 9 15 -6 0 -6 3 1 8 6 4 26 34 44 67 19 33 40 66 47 73 12 13
17 27 14 45 0 4 3 7 9 7 5 0 10 6 10 14 0 8 3 16 8 18 12 5 62 76 62 88 0 6
14 31 30 55 17 24 30 48 30 53 0 5 7 15 15 22 8 7 13 16 10 20 -3 5 -1 10 4
12 10 3 141 218 141 231 0 5 11 23 24 40 13 18 34 52 47 76 33 60 43 76 58 95
7 9 10 16 5 16 -5 0 2 7 14 16 22 15 54 62 34 50 -6 -4 4 16 21 43 18 27 35
47 40 44 4 -2 6 -1 5 4 -4 14 23 83 32 83 5 0 12 10 16 22 3 12 21 43 40 69
18 26 30 50 27 53 -4 3 -1 6 5 6 6 0 19 17 29 38 9 20 21 40 26 43 5 3 8 9 8
12 0 4 22 42 49 84 28 43 50 81 50 85 0 11 107 175 119 183 6 3 11 12 11 18 0
7 -4 6 -10 -3 -5 -8 -10 -10 -10 -4 0 6 9 19 20 29 11 10 18 20 16 23 -3 2 4
13 14 25 11 11 17 24 14 29 -3 4 0 8 6 8 6 0 15 11 20 25 5 14 14 25 20 25 6
0 8 5 5 11 -4 5 1 19 11 30 9 10 14 19 10 19 -4 0 0 7 8 16 19 19 86 131 86
145 0 5 4 9 9 9 5 0 13 10 17 23 3 12 16 36 28 52 11 17 21 32 21 35 0 3 9 17
20 32 21 29 48 36 65 16z"/>
<path d="M3022 5732 c-12 -2 -20 -8 -17 -13 4 -5 1 -9 -4 -9 -6 0 -11 -7 -11
-15 0 -8 -5 -15 -11 -15 -5 0 -8 -4 -4 -9 3 -6 0 -13 -7 -18 -7 -4 -24 -30
-38 -57 -13 -27 -29 -54 -35 -60 -16 -18 -33 -47 -56 -96 -12 -25 -25 -47 -28
-50 -11 -8 -71 -110 -71 -120 0 -6 -4 -10 -9 -10 -5 0 -11 -8 -15 -17 -11 -33
-57 -108 -72 -120 -9 -6 -13 -16 -10 -21 3 -5 -6 -22 -19 -38 -14 -16 -28 -39
-31 -51 -4 -13 -9 -23 -13 -23 -4 0 -13 -16 -21 -35 -8 -19 -17 -35 -21 -35
-4 0 -11 -10 -15 -22 -3 -12 -17 -33 -30 -47 -21 -23 -28 -35 -23 -43 1 -2
-14 -29 -35 -60 -20 -31 -36 -61 -36 -67 0 -5 -6 -16 -12 -23 -19 -19 -78
-118 -78 -129 0 -5 -5 -9 -11 -9 -5 0 -8 -4 -4 -9 3 -5 1 -13 -5 -16 -13 -8
-45 -58 -95 -150 -21 -38 -51 -89 -66 -112 -16 -23 -29 -44 -29 -47 0 -5 -71
-126 -83 -141 -13 -16 -50 -77 -69 -115 -10 -19 -23 -44 -30 -55 -36 -55 -88
-143 -88 -148 0 -9 -63 -100 -75 -109 -5 -4 -6 -8 -1 -8 5 0 2 -8 -7 -18 -10
-10 -14 -22 -10 -25 3 -4 1 -7 -6 -7 -7 0 -10 -4 -7 -9 3 -5 -1 -12 -10 -15
-8 -3 -12 -10 -9 -16 3 -5 2 -10 -3 -10 -5 0 -12 -8 -16 -17 -3 -10 -22 -43
-41 -73 -19 -30 -39 -64 -44 -76 -5 -11 -21 -38 -35 -59 -52 -77 -24 -91 79
-41 40 20 77 36 82 36 4 0 22 11 38 25 46 38 47 39 92 60 22 11 39 24 36 29
-4 5 -1 6 5 2 6 -4 19 -3 29 2 32 17 98 45 108 48 47 10 95 26 100 34 3 6 15
10 25 10 11 0 58 18 105 40 48 22 90 38 94 35 5 -2 26 4 47 14 36 18 68 25
151 36 18 3 52 9 75 14 23 6 45 8 50 5 4 -3 16 0 26 5 11 6 75 13 143 17 68 3
140 9 159 13 42 9 451 4 500 -6 19 -3 46 -8 60 -9 31 -4 41 -6 115 -29 33 -10
65 -20 70 -21 36 -8 112 -41 123 -54 8 -8 11 -9 7 -2 -4 7 8 4 29 -8 20 -11
37 -19 39 -19 1 0 16 -5 32 -11 17 -7 40 -13 52 -13 11 -1 19 -5 16 -9 -2 -5
5 -8 16 -8 11 0 25 -8 30 -17 6 -10 11 -14 11 -10 0 4 10 3 21 -4 17 -9 20 -8
14 3 -4 7 2 3 14 -9 12 -13 33 -26 46 -29 14 -3 23 -9 20 -13 -2 -4 11 -14 30
-23 21 -9 32 -11 29 -4 -3 6 1 3 9 -6 8 -10 19 -18 25 -18 15 0 105 -48 117
-63 6 -7 22 -18 37 -26 22 -11 29 -11 40 0 12 11 11 19 -10 58 -13 25 -30 53
-37 61 -8 8 -14 18 -15 22 -2 19 -15 46 -37 74 -13 17 -23 36 -23 43 0 6 -6
14 -14 17 -8 3 -17 17 -21 32 -4 15 -17 41 -31 59 -13 17 -24 35 -24 39 0 4
-10 19 -22 32 -13 14 -17 22 -9 17 8 -4 5 5 -7 21 -53 75 -131 205 -120 199 7
-4 6 -1 -3 7 -9 7 -24 30 -34 51 -9 20 -22 37 -27 37 -5 0 -6 10 -3 21 4 12 3
19 -2 16 -5 -3 -18 11 -28 31 -11 20 -33 57 -50 82 -16 25 -29 49 -27 53 1 5
-2 6 -8 2 -5 -3 -10 1 -10 9 0 9 -8 24 -17 34 -10 10 -19 24 -21 31 -1 6 -24
46 -50 89 -26 42 -56 94 -67 115 -11 21 -27 46 -35 56 -8 9 -28 43 -45 74 -16
31 -33 57 -38 57 -4 0 -5 5 -2 10 3 6 1 10 -4 10 -6 0 -11 5 -11 10 0 6 -12
29 -27 53 -15 23 -27 44 -28 47 0 10 -69 115 -77 118 -5 2 -8 9 -8 16 0 6 -16
36 -36 66 -20 30 -40 64 -45 75 -5 11 -18 34 -29 50 -11 17 -24 39 -30 50 -20
39 -119 200 -132 215 -7 8 -12 16 -10 17 1 2 -16 34 -38 71 -23 37 -46 76 -53
87 -6 11 -18 31 -27 45 -8 14 -15 27 -15 30 0 3 -11 19 -25 36 -17 21 -32 29
-48 26z m24 -19 c0 -10 63 -124 140 -253 77 -129 234 -392 349 -585 114 -192
218 -366 230 -385 21 -33 348 -581 563 -945 52 -88 112 -186 133 -217 42 -63
40 -73 -5 -31 -50 46 -366 211 -456 237 -52 15 -81 27 -160 67 -19 9 -62 25
-95 34 -33 9 -69 20 -80 25 -29 13 -54 19 -110 25 -27 4 -63 9 -80 13 -32 8
-424 6 -540 -2 -117 -8 -198 -17 -239 -26 -22 -5 -43 -7 -46 -5 -4 2 -31 -2
-60 -10 -29 -8 -56 -13 -59 -13 -29 7 -144 -28 -276 -84 -98 -41 -111 -46
-190 -73 -44 -15 -84 -30 -90 -34 -5 -4 -41 -20 -78 -36 -38 -15 -99 -48 -135
-73 -58 -38 -104 -63 -162 -86 -8 -3 -26 -14 -40 -23 l-25 -18 17 25 c18 27
82 134 351 585 99 165 189 316 202 335 20 31 682 1139 865 1448 40 67 74 122
74 122 1 0 2 -8 2 -17z"/>
<path d="M3006 5533 c-6 -14 -5 -15 5 -6 7 7 10 15 7 18 -3 3 -9 -2 -12 -12z"/>
<path d="M2964 5175 c-7 -18 3 -35 22 -35 20 0 30 30 13 41 -20 12 -29 11 -35
-6z"/>
<path d="M2696 5053 c-6 -14 -5 -15 5 -6 7 7 10 15 7 18 -3 3 -9 -2 -12 -12z"/>
<path d="M3294 5005 c-4 -9 -2 -21 4 -27 15 -15 44 -1 40 19 -4 23 -36 29 -44
8z"/>
<path d="M3310 4640 c-18 -11 -4 -42 17 -38 10 2 19 10 21 19 4 19 -19 31 -38
19z"/>
<path d="M2863 4603 c-15 -5 -17 -39 -4 -47 17 -11 42 6 39 27 -3 22 -15 29
-35 20z"/>
<path d="M2476 4531 c-9 -14 4 -41 19 -41 18 0 26 15 19 34 -7 17 -29 21 -38
7z"/>
<path d="M3581 4511 c-8 -5 -11 -16 -8 -25 7 -18 16 -20 37 -6 13 8 13 11 0
24 -10 10 -20 12 -29 7z"/>
<path d="M3439 4354 c-9 -11 -9 -18 -1 -26 14 -14 42 -3 42 16 0 20 -27 27
-41 10z"/>
<path d="M3767 4322 c-23 -5 -18 -36 6 -40 19 -4 35 25 21 37 -5 4 -17 6 -27
3z"/>
<path d="M3851 4241 c-17 -11 -7 -41 13 -41 22 0 30 20 15 36 -9 8 -19 10 -28
5z"/>
<path d="M3630 4160 c-18 -11 -4 -42 17 -38 10 2 19 10 21 19 4 19 -19 31 -38
19z"/>
<path d="M2981 4081 c-19 -12 -6 -41 19 -41 25 0 38 29 19 41 -8 5 -16 9 -19
9 -3 0 -11 -4 -19 -9z"/>
<path d="M3844 4065 c-7 -18 3 -35 22 -35 20 0 30 30 13 41 -20 12 -29 11 -35
-6z"/>
<path d="M4025 3960 c-8 -14 3 -30 21 -30 8 0 14 9 14 20 0 21 -24 28 -35 10z"/>
<path d="M3891 3951 c-17 -11 -7 -41 13 -41 19 0 28 14 20 34 -7 18 -13 19
-33 7z"/>
<path d="M2480 3885 c0 -20 4 -26 18 -23 9 2 17 12 17 23 0 11 -8 21 -17 23
-14 3 -18 -3 -18 -23z"/>
<path d="M3360 3895 c-15 -18 -5 -35 21 -35 24 0 37 29 18 41 -19 12 -25 11
-39 -6z"/>
<path d="M3551 3881 c-19 -12 -6 -43 16 -39 10 2 18 12 18 22 0 22 -14 29 -34
17z"/>
<path d="M4000 3815 c-10 -11 -10 -19 -2 -27 15 -15 44 -2 40 19 -4 23 -22 27
-38 8z"/>
<path d="M3721 3811 c-19 -12 -6 -43 16 -39 10 2 18 12 18 22 0 22 -14 29 -34
17z"/>
<path d="M4142 3753 c5 -26 38 -29 38 -4 0 15 -6 21 -21 21 -14 0 -19 -5 -17
-17z"/>
<path d="M3801 3711 c-19 -12 -6 -43 16 -39 10 2 18 12 18 22 0 22 -14 29 -34
17z"/>
<path d="M1897 3616 c-7 -17 18 -40 33 -31 15 9 12 32 -6 39 -21 8 -21 8 -27
-8z"/>
<path d="M4041 3621 c-19 -12 -6 -43 16 -39 10 2 18 12 18 22 0 22 -14 29 -34
17z"/>
<path d="M4231 3541 c-17 -11 -7 -41 13 -41 19 0 28 14 20 34 -7 18 -13 19
-33 7z"/>
<path d="M1685 3351 c-3 -5 -2 -12 3 -15 5 -3 9 1 9 9 0 17 -3 19 -12 6z"/>
<path d="M3009 3625 c-3 -2 -60 -7 -128 -10 -68 -3 -128 -8 -132 -11 -10 -6
-197 -35 -207 -32 -4 1 -16 -3 -27 -9 -11 -6 -30 -9 -42 -7 -12 2 -25 -1 -28
-6 -4 -6 -11 -8 -16 -5 -5 4 -9 1 -9 -4 0 -6 -8 -11 -18 -11 -10 0 -22 -3 -26
-7 -4 -5 -11 -8 -14 -9 -27 -2 -72 -17 -72 -24 0 -4 -10 -10 -23 -14 -13 -3
-41 -13 -63 -23 -21 -9 -41 -17 -44 -18 -3 0 -11 -4 -18 -9 -7 -4 -16 -5 -19
-2 -3 3 -20 -2 -37 -11 -17 -9 -40 -18 -51 -20 -10 -2 -22 -7 -25 -12 -3 -5
-24 -14 -46 -20 -23 -6 -47 -18 -54 -26 -7 -8 -16 -13 -20 -10 -4 3 -13 -2
-20 -10 -7 -8 -16 -13 -20 -10 -4 2 -15 -4 -25 -15 -10 -11 -23 -20 -30 -20
-6 0 -21 -9 -33 -20 -11 -11 -40 -27 -64 -37 -24 -9 -60 -27 -80 -40 -21 -13
-42 -23 -46 -23 -16 0 -153 -97 -168 -118 -8 -12 -13 -27 -12 -34 4 -18 41
-50 85 -73 21 -11 40 -22 43 -26 3 -3 21 -14 40 -25 19 -10 41 -25 48 -31 7
-7 20 -13 28 -13 8 0 14 -5 14 -11 0 -5 5 -7 10 -4 6 3 10 2 10 -4 0 -5 16
-15 34 -22 19 -7 33 -16 30 -21 -3 -4 4 -8 15 -8 12 0 21 -5 21 -11 0 -5 17
-17 37 -25 20 -9 51 -26 67 -38 17 -12 52 -33 79 -47 26 -13 47 -27 47 -31 0
-5 6 -8 14 -8 8 0 16 -7 20 -15 3 -8 14 -15 25 -15 11 0 26 -7 35 -15 8 -8 22
-15 31 -15 9 0 13 -4 10 -10 -3 -5 1 -10 10 -10 10 0 13 -5 9 -12 -4 -7 -4
-10 1 -6 9 9 66 -21 139 -70 26 -19 45 -28 41 -20 -3 7 0 5 8 -4 8 -10 18 -18
22 -18 4 0 35 -17 69 -37 33 -21 70 -43 81 -50 11 -7 32 -17 47 -24 16 -6 25
-15 22 -20 -3 -5 -2 -8 3 -7 9 3 91 -44 138 -78 17 -12 40 -25 53 -29 12 -3
22 -11 22 -17 0 -6 3 -9 6 -5 3 3 11 1 18 -4 28 -24 119 -79 131 -79 8 0 18
-8 24 -17 5 -10 13 -15 16 -11 4 4 14 0 22 -8 11 -10 19 -12 27 -4 7 5 16 7
19 3 4 -3 7 -1 7 5 0 7 5 12 11 12 6 0 25 11 42 24 18 13 48 31 67 40 53 25
94 48 100 56 3 4 15 10 28 14 12 4 22 12 22 17 0 5 4 9 10 9 13 0 109 58 139
84 13 12 21 15 16 8 -4 -8 16 2 44 22 28 20 55 36 60 36 5 0 11 4 13 8 2 4 29
20 60 36 31 16 59 35 62 42 3 8 12 14 20 14 8 0 31 10 49 23 56 36 101 61 110
59 4 -1 7 3 7 8 0 6 7 10 15 10 7 0 19 8 24 18 6 9 11 13 11 9 0 -11 60 25 60
36 0 4 5 5 10 2 6 -3 10 -2 10 4 0 5 21 19 48 32 26 12 59 32 74 42 21 16 30
18 41 9 11 -9 14 -8 14 3 0 8 -5 11 -10 8 -6 -3 -7 -1 -3 5 4 7 13 12 20 12 8
0 19 7 26 15 7 8 17 12 23 8 5 -3 7 -1 3 5 -3 6 8 15 29 22 19 6 35 15 35 18
0 4 19 16 43 26 23 11 56 30 74 43 17 13 36 23 42 23 6 0 11 4 11 10 0 5 11
12 25 16 14 3 25 11 25 17 0 6 3 8 6 4 3 -3 15 3 27 13 11 11 23 17 27 15 4
-2 17 9 29 25 l21 29 -85 88 c-47 49 -89 88 -94 88 -4 0 -15 8 -25 18 -10 9
-22 15 -27 12 -5 -4 -9 -1 -9 4 0 6 -7 11 -15 11 -7 0 -19 8 -24 18 -6 9 -11
13 -11 8 0 -6 -9 0 -20 12 -12 12 -27 22 -35 22 -8 0 -15 5 -15 11 0 5 -4 7
-10 4 -5 -3 -10 -1 -10 6 0 7 -3 9 -6 6 -4 -4 -19 2 -34 13 -16 11 -33 20 -39
20 -6 0 -11 5 -11 11 0 5 -4 7 -10 4 -5 -3 -10 -2 -10 3 0 6 -7 13 -16 16 -10
4 -13 2 -8 -7 4 -6 -4 -2 -18 11 -13 12 -30 22 -36 22 -14 0 -49 18 -74 39
-10 8 -18 11 -18 6 0 -4 -6 -2 -14 4 -8 7 -28 13 -45 13 -17 1 -28 5 -25 10 3
4 -3 8 -12 8 -10 0 -51 16 -92 36 -41 19 -87 36 -102 37 -16 1 -26 5 -24 9 2
4 -16 10 -41 13 -25 4 -45 11 -45 14 0 4 -6 8 -12 8 -7 1 -51 8 -98 17 -60 11
-147 16 -296 16 -116 0 -213 -2 -215 -5z m520 -40 c47 -9 95 -20 106 -25 11
-5 44 -16 73 -24 30 -9 72 -24 95 -35 90 -41 165 -71 180 -71 9 0 69 -28 134
-61 65 -34 145 -75 178 -92 33 -16 73 -40 89 -54 16 -13 45 -33 65 -43 20 -11
76 -57 126 -103 l89 -84 -299 -178 c-165 -98 -365 -217 -445 -265 -80 -48
-235 -140 -345 -205 -110 -65 -216 -128 -235 -140 -82 -52 -299 -177 -307
-176 -4 0 -81 45 -170 98 -90 54 -201 121 -247 148 -557 329 -1204 722 -1202
730 6 21 191 138 276 174 30 13 83 43 118 67 34 24 82 52 105 63 107 48 191
81 206 81 9 0 25 6 36 13 11 7 38 19 60 26 22 8 58 22 80 31 137 60 158 66
370 101 228 38 709 51 864 24z"/>
<path d="M2435 3460 c27 -12 43 -12 25 0 -8 5 -22 9 -30 9 -10 0 -8 -3 5 -9z"/>
<path d="M1745 3171 c-3 -5 -2 -12 3 -15 5 -3 9 1 9 9 0 17 -3 19 -12 6z"/>
<path d="M1654 3132 c4 -3 14 -7 22 -8 9 -1 13 0 10 4 -4 3 -14 7 -22 8 -9 1
-13 0 -10 -4z"/>
<path d="M1586 3097 c3 -10 9 -15 12 -12 3 3 0 11 -7 18 -10 9 -11 8 -5 -6z"/>
<path d="M1504 2996 c1 -8 5 -18 8 -22 4 -3 5 1 4 10 -1 8 -5 18 -8 22 -4 3
-5 -1 -4 -10z"/>
<path d="M4476 2938 c3 -5 10 -6 15 -3 13 9 11 12 -6 12 -8 0 -12 -4 -9 -9z"/>
<path d="M4177 2779 c7 -7 15 -10 18 -7 3 3 -2 9 -12 12 -14 6 -15 5 -6 -5z"/>
<path d="M2290 2536 c7 -7 13 -7 20 0 6 6 3 10 -10 10 -13 0 -16 -4 -10 -10z"/>
<path d="M2305 2509 c-4 -6 -5 -12 -2 -15 2 -3 7 2 10 11 7 17 1 20 -8 4z"/>
<path d="M4145 4129 c-4 -6 -5 -12 -2 -15 2 -3 7 2 10 11 7 17 1 20 -8 4z"/>
<path d="M1282 2661 c-23 -14 -17 -69 10 -99 22 -24 188 -255 323 -449 27 -40
122 -172 210 -295 88 -122 178 -247 199 -277 52 -75 232 -328 337 -473 46 -65
207 -291 358 -503 328 -460 299 -439 402 -294 35 49 87 121 114 159 28 37 147
205 265 371 193 272 456 642 1079 1516 197 276 217 313 189 341 -29 29 -22 32
-478 -233 -140 -81 -313 -182 -385 -223 -71 -41 -186 -107 -255 -147 -69 -40
-183 -106 -255 -147 -71 -41 -181 -105 -244 -142 -62 -36 -119 -66 -126 -66
-6 0 -67 32 -136 72 -68 39 -180 104 -249 143 -69 39 -186 107 -260 150 -74
43 -265 153 -425 245 -159 92 -365 210 -457 263 -164 95 -189 105 -216 88z
m77 -40 c14 -8 30 -18 35 -23 15 -12 75 -46 109 -61 15 -6 25 -17 23 -24 -7
-16 7 -24 23 -13 9 5 22 1 35 -12 12 -11 33 -22 48 -25 15 -3 25 -9 22 -14 -3
-5 4 -9 14 -9 11 0 25 -7 33 -16 16 -19 84 -55 93 -49 3 3 4 2 1 -1 -2 -4 17
-18 43 -32 26 -14 65 -36 87 -48 22 -13 70 -40 107 -61 38 -20 64 -41 61 -47
-3 -6 -3 -8 2 -4 9 8 151 -65 166 -86 4 -5 12 -5 19 -1 9 5 11 4 6 -3 -4 -7
-3 -12 3 -12 5 0 45 -22 88 -48 43 -26 93 -54 112 -62 18 -7 43 -23 54 -34 11
-12 17 -14 13 -6 -5 9 -2 8 7 -2 8 -10 21 -18 30 -18 9 0 21 -8 26 -17 6 -10
11 -14 11 -10 0 5 12 -1 26 -12 15 -11 30 -18 35 -15 5 3 9 1 9 -4 0 -5 8 -12
18 -16 9 -3 32 -17 51 -31 19 -14 36 -23 39 -21 2 3 13 -4 25 -15 11 -10 27
-19 34 -19 7 0 13 -5 13 -11 0 -5 5 -7 10 -4 6 3 10 2 10 -4 0 -5 16 -15 34
-22 19 -7 33 -15 31 -19 -2 -3 14 -11 36 -17 30 -8 41 -7 50 3 6 8 15 11 20 8
5 -3 9 0 9 6 0 6 5 8 10 5 6 -3 10 -2 10 4 0 6 11 13 25 17 14 3 23 9 20 14
-2 4 13 13 35 20 22 7 37 16 35 20 -2 3 12 12 31 19 18 7 34 17 34 23 0 6 3 9
6 5 3 -3 15 3 27 13 11 11 23 17 28 15 4 -3 15 2 23 11 9 8 16 12 16 7 0 -4 4
-3 8 4 4 6 46 32 95 57 48 25 94 52 103 61 8 8 20 15 26 15 5 0 29 13 53 29
24 16 53 32 64 36 12 3 21 11 21 16 0 5 3 8 8 7 15 -4 52 14 47 23 -6 8 2 11
21 8 4 0 10 4 13 9 3 5 34 24 68 41 34 18 67 39 74 47 6 8 18 14 25 14 8 0 14
5 14 11 0 5 4 8 9 5 5 -4 11 -3 13 2 1 4 21 19 42 32 22 13 36 18 32 11 -6
-10 -3 -9 13 1 12 7 21 16 21 20 0 5 7 8 15 8 16 0 77 39 83 53 2 4 10 7 19 7
8 0 21 7 30 16 9 8 22 13 30 10 8 -3 12 -2 9 3 -3 5 8 14 24 21 17 7 30 17 30
23 0 6 3 8 6 4 4 -3 13 0 21 8 8 8 23 15 34 15 11 0 22 7 25 15 4 8 11 15 18
15 6 0 34 15 63 34 28 18 64 39 81 47 17 7 28 17 26 21 -3 4 3 8 14 8 10 0 22
3 26 7 13 13 35 11 48 -5 11 -13 11 -14 0 -8 -9 5 -12 3 -10 -5 1 -8 -19 -43
-45 -79 -26 -36 -57 -80 -69 -98 -13 -18 -30 -40 -38 -49 -8 -9 -15 -19 -15
-23 0 -4 -13 -24 -30 -44 -16 -21 -29 -43 -27 -48 1 -5 -2 -7 -8 -3 -5 3 -15
-6 -21 -22 -5 -15 -16 -31 -22 -35 -7 -4 -12 -11 -12 -15 0 -5 -12 -22 -27
-38 -15 -16 -25 -32 -22 -37 3 -4 1 -8 -4 -8 -5 0 -28 -29 -50 -64 -23 -35
-55 -77 -71 -94 -15 -17 -27 -33 -24 -35 2 -3 -11 -24 -30 -48 -18 -24 -47
-65 -65 -91 -18 -25 -38 -52 -45 -60 -7 -7 -22 -28 -33 -47 -10 -19 -31 -48
-46 -64 -15 -17 -25 -34 -22 -38 2 -4 0 -9 -4 -11 -12 -5 -123 -158 -115 -158
4 0 -3 -7 -15 -16 -12 -8 -20 -20 -17 -25 4 -5 2 -9 -3 -9 -4 0 -26 -27 -48
-60 -21 -33 -42 -60 -46 -60 -5 0 -8 -5 -8 -11 0 -6 -18 -33 -40 -59 -22 -26
-40 -52 -40 -58 0 -6 -6 -17 -13 -24 -7 -7 -23 -29 -36 -48 -14 -19 -36 -47
-49 -63 -14 -15 -22 -27 -17 -27 4 0 -2 -9 -15 -20 -13 -11 -20 -20 -16 -20 4
0 1 -6 -6 -14 -8 -8 -37 -47 -64 -87 -27 -41 -52 -76 -55 -79 -8 -6 -59 -79
-96 -135 -14 -22 -30 -41 -34 -43 -5 -2 -9 -8 -9 -14 0 -6 -12 -25 -27 -43
-36 -41 -123 -162 -123 -169 0 -3 -11 -17 -25 -32 -14 -15 -25 -33 -25 -40 0
-7 -9 -16 -20 -19 -11 -4 -18 -11 -15 -16 4 -5 -4 -4 -17 2 -35 16 -139 168
-142 205 -1 16 -4 19 -13 13 -8 -7 -17 -1 -29 20 -10 17 -23 31 -28 31 -5 0
-7 3 -3 6 3 3 1 11 -4 18 -5 6 -21 25 -35 41 -13 17 -34 47 -46 68 -12 20 -25
37 -30 37 -4 0 -8 4 -8 9 0 9 -60 101 -82 126 -26 28 -35 42 -47 64 -7 12 -41
60 -77 107 -35 46 -64 87 -64 90 0 3 -8 13 -18 22 -10 10 -11 13 -2 7 8 -5 -2
9 -22 33 -21 23 -38 45 -38 50 0 4 -11 21 -25 37 -35 42 -38 46 -59 80 -11 16
-23 34 -28 40 -21 26 -115 161 -132 191 -11 18 -24 30 -30 27 -6 -3 -8 -3 -4
2 7 7 -38 76 -54 83 -5 2 -8 10 -8 18 0 8 -4 14 -10 14 -5 0 -10 5 -10 10 0 6
-8 19 -17 29 -33 37 -43 50 -43 61 0 5 -6 10 -12 10 -9 0 -8 4 2 10 11 7 12
10 2 10 -14 0 -51 38 -52 52 0 4 -6 16 -14 25 -8 10 -37 47 -65 83 -28 36 -55
71 -61 78 -6 6 -8 12 -4 12 4 0 -4 12 -18 28 -14 15 -24 35 -23 45 2 9 -1 15
-5 12 -5 -3 -16 5 -25 17 -8 13 -42 60 -75 105 -33 45 -60 85 -60 89 0 4 -18
29 -40 55 -22 26 -40 52 -40 58 0 6 -4 11 -8 11 -5 0 -18 18 -30 39 -12 22
-35 53 -51 70 -35 37 -43 55 -29 69 12 12 25 10 57 -7z"/>
<path d="M4533 2478 c-13 -6 -23 -15 -23 -20 0 -5 -4 -7 -9 -4 -5 3 -14 -1
-21 -9 -7 -8 -19 -15 -26 -15 -8 0 -14 -4 -14 -8 0 -5 -24 -19 -52 -31 -29
-13 -55 -26 -58 -31 -3 -4 -38 -24 -78 -45 -39 -20 -75 -41 -78 -46 -3 -5 -10
-7 -15 -4 -5 4 -9 1 -9 -5 0 -6 -10 -15 -22 -20 -13 -6 -36 -19 -53 -30 -16
-11 -40 -24 -52 -29 -12 -6 -51 -28 -86 -51 -35 -22 -69 -40 -76 -40 -6 0 -11
-4 -11 -8 0 -4 -12 -13 -27 -19 -37 -15 -104 -55 -121 -70 -7 -7 -19 -13 -26
-13 -7 0 -33 -14 -57 -32 -24 -17 -46 -32 -49 -31 -5 0 -81 -48 -90 -57 -3 -3
-12 -6 -20 -8 -13 -3 -52 -26 -155 -89 -11 -7 -32 -18 -47 -25 -16 -7 -28 -16
-28 -21 0 -4 -4 -5 -10 -2 -5 3 -10 1 -10 -4 0 -6 -6 -11 -14 -11 -8 0 -22 -7
-30 -16 -9 -8 -16 -13 -16 -9 0 3 -13 -3 -29 -14 -16 -12 -33 -21 -38 -21 -4
0 -19 -9 -33 -19 -24 -19 -25 -19 -65 2 -22 12 -42 24 -45 27 -9 9 -44 29 -80
48 -19 9 -36 20 -38 25 -2 4 -10 7 -18 7 -8 0 -14 5 -14 12 0 6 -3 8 -7 5 -3
-4 -13 -1 -22 7 -9 8 -38 26 -66 41 -27 14 -74 39 -103 54 -28 16 -52 26 -52
22 0 -3 -5 2 -11 12 -5 9 -14 17 -19 17 -5 0 -39 18 -75 40 -36 22 -70 40 -75
40 -6 0 -10 5 -10 11 0 5 -4 7 -10 4 -5 -3 -10 -2 -10 3 0 5 -23 19 -50 32
-28 13 -50 27 -50 32 0 5 -4 7 -9 4 -5 -3 -14 1 -21 9 -7 8 -19 15 -26 15 -8
0 -14 5 -14 11 0 5 -4 7 -10 4 -5 -3 -10 -1 -10 6 0 7 -3 10 -6 6 -3 -3 -14 2
-24 10 -17 15 -57 38 -195 113 -27 15 -73 41 -102 58 -28 17 -54 28 -57 25 -3
-4 -6 -2 -6 4 0 6 -15 18 -32 27 -18 9 -51 28 -73 42 -22 13 -51 30 -65 36
-14 7 -37 20 -53 31 -30 20 -37 9 -9 -15 9 -8 94 -59 187 -113 94 -53 199
-115 235 -135 36 -21 169 -98 295 -170 127 -73 289 -166 360 -208 72 -41 189
-108 260 -149 72 -41 136 -80 142 -86 10 -9 13 -160 15 -639 2 -344 2 -626 1
-625 -1 1 -21 31 -45 67 -24 36 -101 144 -170 241 -70 97 -144 201 -165 231
-89 126 -340 479 -390 548 -75 104 -210 292 -264 370 -25 36 -86 121 -135 190
-50 69 -145 202 -212 296 -111 157 -152 208 -152 190 0 -9 19 -46 32 -60 27
-33 108 -146 108 -151 0 -3 11 -18 25 -33 14 -15 25 -32 25 -39 0 -7 4 -13 8
-13 4 0 24 -25 43 -55 18 -30 38 -55 42 -55 5 0 6 -4 2 -9 -3 -6 0 -13 7 -18
16 -10 68 -77 93 -120 11 -18 23 -33 27 -33 4 0 8 -7 8 -15 0 -7 8 -19 18 -24
10 -6 12 -11 4 -11 -7 0 -10 -5 -7 -10 4 -6 10 -8 14 -6 4 3 18 -13 31 -35 14
-21 28 -39 33 -39 4 0 6 -4 3 -9 -4 -5 -3 -11 1 -13 14 -6 96 -121 96 -134 0
-7 4 -11 9 -8 4 3 8 -1 8 -8 0 -7 11 -26 25 -41 14 -15 56 -71 92 -125 37 -53
70 -96 75 -94 5 1 7 -2 4 -7 -4 -5 0 -15 7 -23 7 -7 30 -38 51 -68 20 -30 57
-82 81 -115 24 -33 68 -96 98 -140 30 -44 64 -89 74 -100 11 -11 20 -24 21
-30 2 -5 11 -20 22 -32 10 -12 23 -31 29 -42 13 -24 105 -149 126 -172 8 -9
15 -20 15 -26 0 -5 8 -19 18 -31 10 -11 27 -33 38 -48 111 -156 131 -173 145
-124 4 14 8 300 8 635 l1 610 138 79 c75 43 193 111 262 151 69 40 242 140
385 222 143 83 330 191 415 240 85 50 188 109 227 132 40 23 77 51 83 61 6 11
9 20 8 19 -2 0 -13 -5 -25 -11z"/>
<path d="M4544 2438 c-12 -13 -95 -126 -185 -253 -246 -346 -591 -832 -644
-905 -80 -110 -345 -483 -374 -525 -15 -22 -81 -114 -146 -205 -154 -215 -169
-240 -146 -240 6 0 18 13 27 29 10 17 21 28 26 25 4 -3 5 1 3 9 -3 7 3 22 15
32 11 10 20 22 20 27 0 5 13 23 30 41 16 18 30 37 30 42 0 6 15 26 33 46 38
43 56 68 63 91 4 10 10 18 14 18 4 0 23 25 41 56 19 31 49 73 67 94 17 21 32
41 32 44 0 4 20 34 45 66 25 32 45 61 45 64 0 5 111 156 145 199 8 9 11 17 7
17 -4 0 1 5 11 11 9 5 26 27 36 47 23 44 119 176 132 180 5 2 9 13 9 23 0 11
5 17 10 14 6 -3 10 -2 10 3 0 5 9 19 20 32 11 13 20 28 20 34 0 6 14 27 30 46
16 19 34 40 39 46 26 32 101 147 101 155 0 6 4 8 8 5 4 -3 17 12 27 32 11 20
48 74 82 119 35 45 63 86 63 91 0 5 11 19 25 32 14 13 25 30 25 37 0 8 11 25
24 38 14 14 42 50 63 82 20 31 48 68 60 81 13 14 23 30 23 37 0 7 12 24 26 39
15 14 23 26 18 26 -5 0 -3 4 5 9 7 5 12 14 10 20 -3 8 -12 3 -25 -11z"/>
<path d="M1880 2180 c8 -5 20 -10 25 -10 6 0 3 5 -5 10 -8 5 -19 10 -25 10 -5
0 -3 -5 5 -10z"/>
<path d="M1932 2158 c-29 -29 -6 -64 58 -92 19 -8 28 -15 20 -16 -13 0 -13 -2
0 -9 8 -6 19 -7 25 -3 5 3 5 -1 -2 -9 -12 -15 -14 -15 47 -21 11 -1 20 -6 20
-10 0 -4 7 -8 15 -8 8 0 15 -4 15 -9 0 -5 10 -11 22 -14 18 -5 19 -8 8 -22 -7
-8 -10 -18 -6 -22 3 -3 6 -1 6 6 0 7 5 9 10 6 6 -3 10 0 10 7 0 8 3 9 8 3 4
-5 21 -18 37 -27 17 -10 29 -24 27 -33 -2 -8 2 -15 8 -15 6 0 8 5 5 10 -10 16
11 11 36 -9 33 -26 64 -34 101 -26 22 5 27 9 17 16 -11 7 -11 9 -1 9 10 0 10
5 2 20 -11 21 -439 280 -462 280 -8 0 -19 -5 -26 -12z m196 -94 c86 -53 183
-113 215 -132 56 -34 71 -57 42 -68 -11 -5 -356 195 -429 249 -20 14 -17 47 4
47 6 0 81 -43 168 -96z"/>
<path d="M1812 2122 c-29 -28 -30 -44 -5 -73 17 -19 173 -236 197 -274 11 -17
24 -35 30 -41 6 -6 24 -32 40 -57 17 -26 34 -47 38 -47 4 0 8 -5 8 -11 0 -6
16 -29 35 -50 19 -22 35 -35 35 -29 0 5 10 12 23 15 17 5 22 13 22 40 0 18 -2
32 -5 30 -4 -2 -12 5 -19 17 -10 16 -10 19 1 13 7 -4 1 3 -13 16 -14 13 -43
49 -65 79 -21 30 -42 58 -47 61 -5 4 -7 11 -3 17 3 5 -2 16 -12 23 -15 12 -16
12 -7 -1 6 -9 2 -7 -8 4 -10 10 -15 26 -13 33 3 8 2 12 -3 9 -9 -6 -62 57 -65
77 -1 7 -14 26 -30 44 -15 17 -28 35 -28 40 0 4 -9 14 -19 21 -16 11 -17 17
-7 35 10 20 10 21 -6 8 -14 -12 -19 -12 -26 -2 -5 8 -13 10 -21 5 -12 -6 -12
-5 0 9 21 27 5 20 -27 -11z m216 -265 c100 -140 182 -261 182 -270 0 -22 -14
-29 -32 -14 -8 7 -80 102 -158 212 -79 110 -159 221 -178 248 -33 46 -37 77
-9 77 7 0 95 -114 195 -253z"/>
<path d="M2472 1838 c-16 -16 -15 -33 3 -48 8 -7 12 -16 9 -21 -9 -15 18 -5
43 15 28 23 29 34 6 52 -22 17 -45 18 -61 2z m56 -21 c4 -20 -25 -34 -40 -19
-15 15 -1 44 19 40 10 -2 19 -11 21 -21z"/>
<path d="M4025 1830 c-2 -3 5 -6 15 -7 11 -1 22 2 24 5 3 4 -4 8 -15 8 -11 0
-22 -3 -24 -6z"/>
<path d="M2615 1719 c0 -21 2 -37 5 -36 3 1 19 -7 35 -17 17 -9 22 -15 12 -12
-11 4 -16 2 -11 -5 3 -6 15 -9 25 -6 10 3 28 -4 40 -14 25 -22 23 -21 67 -23
17 -1 32 2 32 6 0 5 4 7 9 4 7 -5 8 16 2 46 -2 14 -157 91 -186 93 -29 2 -30
0 -30 -36z m128 -20 c56 -29 77 -46 75 -57 -6 -29 -33 -24 -106 18 -76 44 -87
54 -77 70 10 17 26 12 108 -31z"/>
<path d="M3876 1588 c3 -5 10 -6 15 -3 13 9 11 12 -6 12 -8 0 -12 -4 -9 -9z"/>
<path d="M3767 1503 c3 -7 6 -13 8 -13 1 0 7 6 13 13 8 10 6 13 -7 13 -11 0
-17 -6 -14 -13z"/>
<path d="M2283 1476 c-20 -20 -20 -23 -6 -51 9 -17 19 -32 23 -35 4 -3 17 -24
29 -48 13 -26 26 -40 33 -36 6 4 8 3 5 -3 -7 -10 22 -51 62 -90 l25 -24 25 26
c26 25 26 26 8 56 -9 17 -14 36 -10 41 4 7 1 8 -7 3 -10 -6 -12 -4 -7 8 3 9 3
16 -1 16 -20 -3 -33 2 -27 11 3 6 1 10 -4 10 -6 0 -11 6 -11 14 0 8 -10 22
-22 30 -12 9 -17 16 -11 16 6 0 -4 16 -22 36 -21 22 -39 33 -46 28 -8 -4 -9
-3 -5 4 12 19 -7 12 -31 -12z m74 -48 c104 -147 124 -180 112 -194 -6 -8 -15
-14 -19 -14 -15 0 -162 221 -156 235 10 26 32 16 63 -27z"/>
<path d="M2356 1487 c3 -10 9 -15 12 -12 3 3 0 11 -7 18 -10 9 -11 8 -5 -6z"/>
<path d="M3703 1339 c-2 -23 3 -25 10 -4 4 8 3 16 -1 19 -4 3 -9 -4 -9 -15z"/>
<path d="M3614 1258 c0 -10 1 -18 3 -18 1 0 7 8 12 18 7 13 6 19 -2 19 -7 0
-13 -9 -13 -19z"/>
<path d="M2465 1179 c-4 -6 -5 -12 -2 -15 2 -3 7 2 10 11 7 17 1 20 -8 4z"/>
<path d="M2534 1125 c-10 -8 -14 -15 -9 -15 6 0 3 -5 -5 -10 -12 -8 -12 -12
-2 -19 7 -4 14 -14 15 -22 2 -8 6 -14 10 -14 3 0 13 -9 21 -21 15 -21 40 -25
64 -10 21 12 13 61 -14 94 -30 35 -50 40 -80 17z m62 -32 c31 -43 33 -48 25
-62 -11 -17 -42 -1 -65 34 -34 51 5 76 40 28z"/>
<path d="M2616 943 c-6 -14 -5 -15 5 -6 7 7 10 15 7 18 -3 3 -9 -2 -12 -12z"/>
<path d="M2685 869 c-4 -6 -5 -12 -2 -15 2 -3 7 2 10 11 7 17 1 20 -8 4z"/>
<path d="M3289 773 c-13 -16 -12 -17 4 -4 16 13 21 21 13 21 -2 0 -10 -8 -17
-17z"/>
<path d="M3240 706 c7 -7 13 -7 20 0 6 6 3 10 -10 10 -13 0 -16 -4 -10 -10z"/>
<path d="M3208 663 c7 -3 16 -2 19 1 4 3 -2 6 -13 5 -11 0 -14 -3 -6 -6z"/>
<path d="M2846 608 c3 -5 10 -6 15 -3 13 9 11 12 -6 12 -8 0 -12 -4 -9 -9z"/>
<path d="M2936 547 c3 -10 9 -15 12 -12 3 3 0 11 -7 18 -10 9 -11 8 -5 -6z"/>
<path d="M3150 545 c-7 -8 -17 -12 -23 -8 -6 4 -7 1 -3 -6 6 -9 13 -8 27 5 10
9 19 19 19 21 0 7 -8 2 -20 -12z"/>
<path d="M3070 450 c6 -11 13 -20 16 -20 2 0 0 9 -6 20 -6 11 -13 20 -16 20
-2 0 0 -9 6 -20z"/>
<path d="M1376 2347 c3 -10 9 -15 12 -12 3 3 0 11 -7 18 -10 9 -11 8 -5 -6z"/>
<path d="M4539 2193 c-13 -16 -12 -17 4 -4 9 7 17 15 17 17 0 8 -8 3 -21 -13z"/>
<path d="M3526 2062 c-3 -5 1 -9 9 -9 8 0 12 4 9 9 -3 4 -7 8 -9 8 -2 0 -6 -4
-9 -8z"/>
<path d="M616 961 c-4 -5 -2 -12 3 -15 5 -4 12 -2 15 3 4 5 2 12 -3 15 -5 4
-12 2 -15 -3z"/>
</g>
</svg>
